<?xml version="1.0" encoding="utf-8"?>
<svg viewBox="-317.964 940.874 1000 427.951" xmlns="http://www.w3.org/2000/svg">
  <path d="M 42.245 1171.784 L -20.489 1353.503 L 30.765 1354.041 L 38.934 1326.552 L 131.505 1327.295 L 140.1 1354.751 L 191.874 1354.514 L 128.335 1171.705 L 42.245 1171.784 Z M 86.702 1198.499 C 86.702 1198.499 86.702 1198.502 86.7 1198.508 C 86.793 1199.574 116.292 1286.243 116.613 1287.077 C 116.615 1287.08 116.615 1287.08 116.615 1287.08 C 116.615 1287.083 116.615 1287.085 116.615 1287.085 C 116.615 1287.085 116.615 1287.083 116.613 1287.077 C 116.495 1287.046 110.152 1287.031 101.553 1287.031 C 83.177 1287.031 54.507 1287.094 54.292 1287.158 C 54.292 1287.16 54.292 1287.16 54.292 1287.16 C 54.29 1287.16 54.292 1287.16 54.292 1287.158 C 54.404 1286.986 62.505 1264.907 70.58 1242.829 C 78.588 1220.932 86.569 1199.033 86.7 1198.508 C 86.7 1198.502 86.7 1198.499 86.702 1198.499 Z M 140.254 1167.572 L 203.793 1350.381 L 209.59 1367.056 L 191.935 1367.138 L 140.163 1367.375 L 130.847 1367.416 L 128.064 1358.525 L 122.216 1339.84 L 48.326 1339.249 L 42.86 1357.64 L 40.149 1366.758 L 30.635 1366.659 L -20.618 1366.121 L -38.126 1365.94 L -32.413 1349.39 L 30.321 1167.671 L 33.253 1159.177 L 42.236 1159.169 L 128.326 1159.089 L 137.304 1159.081 L 140.254 1167.572 Z M 98.96 1274.415 C 95.12 1263.127 90.643 1249.937 89.624 1246.931 C 88.388 1243.281 87.249 1239.926 86.203 1236.841 C 85.054 1239.985 83.8 1243.416 82.43 1247.163 C 78.06 1259.115 74.841 1267.916 72.452 1274.428 C 78.947 1274.417 87.542 1274.415 98.96 1274.415 Z M -130.597 1173.154 L -188.555 1173.154 L -216.768 1253.332 C -216.769 1253.333 -216.769 1253.335 -216.771 1253.335 C -217.148 1253.335 -245.422 1173.189 -245.422 1173.189 L -297.038 1173.156 L -235.25 1354.751 L -199.562 1354.751 L -159.395 1244.594 C -159.549 1245.028 -121.073 1356.151 -121.073 1356.151 L -85.023 1356.151 L -22.446 1173.817 L -74.315 1173.817 C -74.315 1173.817 -101.077 1251.534 -102.023 1252.37 C -102.034 1252.38 -102.046 1252.386 -102.061 1252.386 C -102.922 1252.386 -109.526 1235.021 -116.924 1213.309 L -130.597 1173.156 L -130.597 1173.154 Z M -297.029 1160.54 L -245.413 1160.573 L -236.491 1160.579 L -233.523 1168.991 C -228.698 1182.67 -222.385 1200.508 -216.939 1215.814 L -200.455 1168.967 L -197.488 1160.538 L -121.565 1160.538 L -118.654 1169.087 L -104.983 1209.238 C -104.119 1211.777 -103.283 1214.203 -102.48 1216.51 C -97.158 1201.299 -90.933 1183.328 -86.243 1169.71 L -83.313 1161.2 L -4.777 1161.2 L -10.513 1177.914 L -73.089 1360.247 L -76.013 1368.767 L -130.055 1368.767 L -132.994 1360.278 C -132.994 1360.278 -142.617 1332.488 -152.22 1304.645 C -154.817 1297.115 -157.414 1289.578 -159.818 1282.586 L -187.708 1359.072 L -190.732 1367.367 L -244.283 1367.367 L -247.193 1358.813 L -308.981 1177.22 L -314.66 1160.529 L -297.029 1160.54 Z M 668.231 1172.447 L 551.846 1172.452 C 508.147 1172.452 499.74 1206.041 500.101 1216.718 C 500.274 1225.628 497.623 1237.692 522.936 1262.879 C 542.917 1285.383 545.078 1288.995 542.237 1295.035 C 538.181 1303.71 540.823 1304.088 488.319 1304.088 C 483.272 1304.088 477.712 1304.085 471.59 1304.085 C 419.358 1304.085 407.513 1303.707 403.446 1302.005 C 398.685 1300.017 385.973 1287.497 385.973 1284.8 C 385.973 1284.075 389.127 1282.04 392.989 1280.293 C 403.446 1275.513 416.331 1264.379 421.393 1255.705 C 423.855 1251.48 426.819 1243.529 427.986 1238.043 C 433.112 1213.867 407.359 1175.957 369.305 1174.583 L 243.047 1174.583 L 243.395 1355.91 L 300.009 1356.16 L 300.421 1285.858 C 300.421 1285.842 300.428 1285.833 300.444 1285.833 C 301.039 1285.836 312.617 1296.38 325.182 1308.422 C 360.113 1341.934 373.328 1352.721 381.623 1354.598 C 386.293 1355.639 418.37 1356.142 479.022 1356.157 C 480.508 1356.157 481.957 1356.157 483.402 1356.157 C 583.13 1356.157 582.542 1356.08 595.975 1345.151 C 609.379 1334.254 616.601 1317.728 614.629 1302.461 C 613.417 1293.06 611.617 1289.829 598.498 1273.458 C 593.388 1267.074 585.013 1256.618 579.921 1250.23 C 574.813 1243.843 570.094 1236.888 569.465 1234.759 C 568.186 1230.55 571.058 1220.96 575.568 1220.139 C 575.849 1220.088 581.755 1220.068 590.461 1220.068 C 616.634 1220.068 668.113 1220.24 668.113 1220.24 L 668.231 1172.448 L 668.231 1172.447 Z M 299.886 1254.387 C 299.886 1254.387 300.233 1211.144 299.982 1210.908 L 330.386 1211.067 C 356.659 1211.211 361.36 1211.57 365.017 1213.748 C 381.718 1223.671 380.788 1246.031 363.377 1253.601 C 358.219 1255.842 353.298 1256.219 329.059 1256.219 C 307.501 1256.219 299.886 1254.387 299.886 1254.387 Z M 680.844 1172.472 L 680.726 1220.265 L 680.694 1232.894 L 668.065 1232.853 C 667.551 1232.85 616.31 1232.68 590.455 1232.68 C 587.179 1232.68 584.648 1232.683 582.699 1232.688 C 584.183 1234.965 586.643 1238.442 589.775 1242.36 C 593.658 1247.23 599.45 1254.465 604.245 1260.456 L 608.335 1265.566 C 622.1 1282.738 625.484 1288.051 627.137 1300.841 C 629.673 1320.506 620.781 1341.233 603.931 1354.933 L 603.658 1355.155 C 595.454 1361.834 589.982 1365.693 572.967 1367.338 C 558.113 1368.773 533.143 1368.773 483.394 1368.773 L 479.011 1368.773 C 387.118 1368.747 381.954 1367.595 378.834 1366.899 C 367.474 1364.33 354.65 1354.176 316.443 1317.526 C 315.216 1316.349 314.021 1315.209 312.865 1314.111 L 312.62 1356.227 L 312.546 1368.825 L 299.949 1368.77 L 243.335 1368.519 L 230.799 1368.464 L 230.774 1355.928 L 230.426 1174.603 L 230.401 1161.96 L 369.529 1161.96 L 369.758 1161.97 C 391.459 1162.752 412.006 1173.575 426.13 1191.665 C 438.236 1207.17 443.542 1225.481 440.325 1240.66 C 438.874 1247.481 435.419 1256.675 432.286 1262.057 C 427.122 1270.909 416.157 1281.261 405.312 1287.94 C 406.482 1288.955 407.547 1289.807 408.305 1290.302 C 413.73 1291.373 440.199 1291.463 471.588 1291.463 L 480.76 1291.466 L 488.317 1291.466 C 506.109 1291.466 523.05 1291.466 529.733 1290.644 C 526.677 1286.108 518.59 1276.982 513.756 1271.538 C 489.305 1247.113 487.37 1232.243 487.485 1219.108 C 487.493 1218.388 487.5 1217.697 487.488 1217.024 C 487.25 1208.941 490.35 1191.797 503.513 1178.183 C 511.605 1169.811 526.56 1159.831 551.843 1159.831 L 680.877 1159.831 L 680.844 1172.472 Z M 329.059 1243.603 C 351.185 1243.603 355.585 1243.229 358.345 1242.031 C 363.295 1239.881 364.245 1236.216 364.371 1234.223 C 364.601 1230.533 362.483 1226.97 358.687 1224.666 C 355.713 1223.822 340.457 1223.739 330.318 1223.684 L 312.676 1223.592 C 312.671 1226.487 312.657 1229.648 312.641 1232.802 C 312.62 1236.382 312.602 1239.955 312.581 1243.142 C 316.628 1243.4 322.042 1243.603 329.059 1243.603 Z M -136.574 953.936 C -165.402 953.936 -181.898 980.809 -183.222 999.307 C -184.389 1015.519 -182.008 1020.156 -159.472 1045.546 C -140.406 1067.025 -139.917 1067.782 -140.863 1073.585 C -141.542 1077.623 -143.324 1080.572 -146.399 1082.716 L -150.956 1085.886 L -305.348 1085.886 L -305.348 1136.556 C -300.15 1136.556 -197.025 1136.556 -192.335 1136.556 C -101.105 1136.556 -103.204 1136.37 -90.919 1128.78 C -73.682 1118.119 -64.22 1091.877 -71.537 1075.035 C -72.878 1071.975 -83.05 1057.971 -94.12 1043.936 C -111.184 1022.33 -114.291 1017.568 -114.291 1012.805 C -114.291 1008.926 -112.587 998.801 -99.877 998.801 L 5.564 998.501 L 5.564 1136.555 L 59.419 1136.555 L 59.419 998.612 L 149.751 998.612 L 149.751 953.509 L -136.574 953.936 Z M 162.368 1011.225 L 72.035 1011.225 L 72.035 1149.168 L -7.053 1149.168 L -7.053 1011.151 L -99.877 1011.414 C -100.697 1011.414 -101.195 1011.502 -101.455 1011.569 C -101.534 1011.788 -101.608 1012.103 -101.646 1012.408 C -100.082 1016.029 -90.2 1028.539 -84.214 1036.12 C -82.048 1038.864 -62.977 1063.131 -59.965 1070.004 C -50.203 1092.472 -61.794 1125.599 -84.286 1139.51 L -85.179 1140.063 C -92.332 1144.506 -97.107 1147.073 -112.073 1148.169 C -125.153 1149.128 -147.355 1149.171 -192.335 1149.171 L -317.964 1149.171 L -317.964 1073.268 L -154.915 1073.268 L -153.619 1072.366 C -153.568 1072.332 -153.532 1072.303 -153.508 1072.284 C -153.489 1072.239 -153.458 1072.158 -153.423 1072.034 C -155.59 1068.927 -162.082 1061.611 -168.911 1053.92 C -192.439 1027.412 -197.343 1019.712 -195.809 998.405 C -194.9 985.713 -188.882 971.872 -179.714 961.381 C -168.405 948.443 -153.087 941.318 -136.594 941.318 L 149.731 940.893 L 162.368 940.874 L 162.368 1011.225 Z M 209.458 954.974 L 146.788 1136.553 L 199.412 1136.553 L 207.646 1110.106 L 299.806 1110.516 L 308.195 1137.972 L 359.875 1138.256 L 296.51 954.974 L 209.458 954.974 Z M 222.688 1071.077 C 221.98 1071.077 254.525 980.721 254.749 980.729 C 254.954 980.792 285.671 1070.999 285.457 1070.999 C 285.457 1070.999 285.457 1070.997 285.455 1070.997 L 222.687 1071.076 L 222.688 1071.077 Z M 308.443 950.852 L 371.808 1134.134 L 377.629 1150.971 L 359.814 1150.873 L 308.134 1150.589 L 298.85 1150.537 L 296.136 1141.66 L 290.461 1123.092 L 216.921 1122.765 L 211.462 1140.304 L 208.703 1149.171 L 129.088 1149.171 L 134.863 1132.439 L 197.534 950.858 L 200.467 942.358 L 305.497 942.358 L 308.443 950.852 Z M 267.974 1058.403 C 264.222 1047.293 259.079 1032.152 254.43 1018.52 C 249.526 1032.169 244.107 1047.356 240.215 1058.438 L 267.974 1058.403 Z M 408.548 954.974 L 408.548 1136.553 L 466.966 1136.553 L 466.726 1067.227 L 489.467 1088.864 C 521.326 1119.174 537 1132.453 543.513 1134.661 C 547.866 1136.127 562.723 1136.553 609.149 1136.553 L 669.172 1136.553 L 668.212 1086.593 L 570.31 1085.189 L 565.011 1081.073 C 562.11 1078.818 557.598 1074.481 554.997 1071.437 C 550.962 1066.706 550.66 1065.729 552.915 1064.704 C 554.384 1064.041 560.264 1060.714 565.989 1057.292 C 585.623 1045.574 595.576 1027.517 593.902 1006.59 C 592.735 991.766 590.685 986.593 581.744 975.775 C 573.196 965.43 561.794 958.696 549.178 956.504 C 543.721 955.557 515.352 954.974 474.474 954.974 L 408.548 954.974 Z M 465.867 991.577 L 494.111 991.577 C 518.303 991.577 523.241 991.939 528.366 994.179 C 537.467 998.121 541.094 1003.026 541.93 1012.441 C 542.747 1021.572 540.022 1027.517 532.324 1033.289 C 528.017 1036.522 527.074 1036.617 496.888 1036.617 L 465.867 1036.617 L 465.867 991.577 Z M 551.342 944.075 C 566.837 946.767 581.089 955.171 591.472 967.738 C 602.038 980.519 605.125 988.304 606.486 1005.587 C 608.531 1031.207 596.131 1054.002 572.471 1068.121 C 571.914 1068.452 571.271 1068.835 570.567 1069.252 C 571.376 1069.98 572.133 1070.624 572.758 1071.111 L 574.721 1072.636 L 668.4 1073.978 L 680.596 1074.153 L 680.83 1086.35 L 681.79 1136.31 L 682.036 1149.169 L 609.154 1149.169 C 555.21 1149.169 545.355 1148.594 539.468 1146.608 C 531.801 1144.009 520.178 1135.493 480.774 1098.003 L 479.45 1096.742 L 479.588 1136.509 L 479.633 1149.169 L 395.938 1149.169 L 395.938 942.358 L 474.474 942.358 C 499.487 942.358 542.731 942.582 551.342 944.075 Z M 478.482 1004.193 L 478.484 1024.002 L 496.888 1024.002 C 510.547 1024.002 521.462 1024.002 524.403 1023.458 C 524.496 1023.39 524.608 1023.305 524.754 1023.196 C 529.21 1019.856 529.766 1018.049 529.363 1013.557 C 528.96 1009.038 528.44 1007.961 523.315 1005.74 C 520.615 1004.56 516.232 1004.193 494.111 1004.193 L 478.482 1004.193 Z" id="path17" style="stroke-linejoin: round; stroke-linecap: round; stroke-dashoffset: 50px; paint-order: stroke; stroke-width: 50px; fill: rgb(255, 232, 31);"/>
</svg>