<?xml version="1.0" encoding="utf-8"?>
<svg viewBox="-1175.964 -915.122 453.345 515.325" xmlns="http://www.w3.org/2000/svg">
  <path d="M -804.653 -884.261 C -800.483 -870.375 -794.921 -854.947 -790.75 -839.517 C -778.235 -799.402 -765.723 -757.744 -753.208 -714.544 C -750.427 -705.286 -750.427 -691.4 -749.037 -679.058 C -740.694 -615.8 -722.619 -493.912 -722.619 -490.827 C -722.619 -484.656 -726.79 -481.57 -729.571 -481.57 C -732.352 -481.57 -751.817 -489.284 -761.55 -492.37 C -764.331 -492.37 -768.502 -495.456 -771.283 -496.999 C -785.187 -555.628 -800.482 -615.801 -817.167 -674.43 C -821.338 -674.43 -828.291 -675.973 -831.071 -672.887 C -840.803 -668.259 -849.147 -659.001 -857.489 -654.373 C -860.269 -652.83 -864.441 -652.83 -865.831 -651.287 C -889.468 -637.401 -895.03 -637.401 -895.03 -620.43 C -895.03 -606.544 -927.009 -591.115 -929.791 -591.115 C -933.962 -589.572 -940.915 -589.572 -943.695 -589.572 C -947.866 -589.572 -957.599 -591.115 -964.55 -592.658 C -968.721 -592.658 -974.283 -595.743 -977.065 -597.286 C -982.627 -600.372 -975.674 -603.458 -990.968 -609.629 C -997.92 -612.714 -1010.435 -612.714 -1014.606 -612.714 C -1017.386 -612.714 -1017.386 -606.543 -1020.168 -606.543 C -1024.339 -606.543 -1039.634 -609.629 -1049.367 -612.714 C -1052.148 -612.714 -1054.929 -615.8 -1059.099 -615.8 C -1060.491 -615.8 -1075.785 -617.343 -1077.175 -605 L -1056.32 -426.026 C -1059.101 -416.769 -1079.957 -402.882 -1086.909 -399.797 C -1092.471 -410.597 -1098.032 -422.941 -1100.813 -435.283 C -1111.936 -473.855 -1118.888 -513.971 -1130.011 -551 C -1139.744 -589.572 -1152.258 -635.858 -1156.429 -672.887 C -1157.821 -691.402 -1160.601 -709.916 -1163.381 -725.345 C -1164.773 -740.774 -1166.162 -759.288 -1168.943 -774.717 C -1170.333 -791.689 -1175.895 -822.547 -1175.895 -825.633 C -1175.895 -834.89 -1177.285 -837.976 -1167.551 -837.976 C -1164.771 -837.976 -1138.353 -831.804 -1131.401 -819.461 C -1116.106 -796.317 -1113.325 -763.917 -1106.373 -733.059 C -1102.202 -717.63 -1091.078 -651.287 -1079.955 -651.287 C -1073.003 -651.287 -1064.66 -663.629 -1063.27 -663.629 C -1054.926 -669.8 -1039.633 -680.601 -1027.119 -683.688 C -1010.433 -688.316 -996.529 -717.63 -988.187 -723.803 C -985.406 -726.889 -978.454 -726.889 -974.283 -729.975 C -972.893 -729.975 -970.112 -733.06 -970.112 -734.603 C -965.941 -736.146 -960.379 -737.689 -956.208 -737.689 C -953.427 -737.689 -953.427 -733.06 -949.256 -733.06 C -946.476 -733.06 -943.694 -736.146 -940.914 -736.146 C -936.743 -736.146 -922.838 -723.803 -913.105 -722.26 C -897.811 -717.632 -878.343 -717.632 -860.268 -716.089 C -854.706 -716.089 -844.973 -709.918 -840.802 -709.918 C -839.412 -709.918 -826.899 -714.547 -824.117 -723.804 L -846.364 -879.636 C -846.364 -887.35 -819.946 -915.122 -818.554 -915.122 C -811.607 -915.119 -804.653 -885.804 -804.653 -884.261 Z"/>
</svg>