<?xml version="1.0" encoding="utf-8"?>
<svg viewBox="1275.461 -1538.914 775.847 712.362" xmlns="http://www.w3.org/2000/svg">
  <path d="M 1894.712 -1112.229 L 1903.747 -1108.426 C 1897.101 -1108.387 1896.397 -1106.839 1896.427 -1106.827 C 1896.456 -1106.814 1897.042 -1107.951 1894.712 -1112.229 Z M 1675.501 -1530.677 C 1676.61 -1524.891 1679.704 -1511.18 1678.437 -1508.169 C 1671.466 -1491.603 1655.691 -1508.879 1650.621 -1496.831 C 1648.086 -1490.807 1701.754 -1420.355 1725.535 -1392.618 C 1727.279 -1388.339 1736.076 -1388.182 1740.832 -1382.634 C 1747.097 -1376.453 1755.578 -1358.7 1760.098 -1356.799 C 1763.112 -1355.532 1784.509 -1364.253 1792.435 -1366.236 C 1794.575 -1367.108 1801.231 -1366.079 1807.017 -1367.189 C 1814.944 -1369.172 1845.693 -1391.686 1860.75 -1385.347 C 1872.799 -1380.276 1877.479 -1353.488 1873.043 -1342.947 C 1867.338 -1329.392 1828.264 -1333.428 1821.842 -1330.813 C 1818.197 -1330.574 1816.297 -1326.057 1812.016 -1324.312 C 1807.102 -1321.062 1797.037 -1318.207 1788.477 -1314.718 C 1790.223 -1310.439 1790.065 -1301.641 1793.078 -1300.374 C 1797.597 -1298.471 1811.068 -1305.211 1814.081 -1303.943 C 1818.599 -1302.042 1844.282 -1278.822 1848.802 -1276.921 C 1851.813 -1275.654 1881.376 -1282.712 1898.099 -1284.537 C 1899.605 -1283.903 1901.745 -1284.776 1904.519 -1287.153 C 1916.247 -1298.173 1934.239 -1303.008 1941.767 -1299.841 C 1946.286 -1297.939 1945.652 -1296.433 1948.029 -1293.659 C 1955.403 -1281.693 1958.496 -1267.982 1955.327 -1260.452 C 1947.088 -1240.873 1906.267 -1249.19 1899.453 -1241.42 C 1896.68 -1239.043 1893.51 -1231.512 1890.101 -1227.628 L 1888.201 -1223.109 C 1894.224 -1220.575 1902.389 -1218.911 1907.146 -1213.364 C 1912.536 -1209.323 1912.616 -1196.879 1919.511 -1192.204 C 1939.566 -1176.672 1982.21 -1151.633 1986.73 -1149.732 C 1989.742 -1148.463 1991.248 -1147.83 1994.894 -1148.068 C 2011.617 -1149.894 2037.533 -1156.713 2040.543 -1155.445 C 2049.58 -1151.642 2052.672 -1137.931 2050.772 -1133.413 C 2046.334 -1122.871 2030.483 -1118.905 2029.214 -1115.894 C 2027.945 -1112.882 2030.565 -1106.462 2029.295 -1103.45 C 2027.395 -1098.932 1967.874 -1079.664 1963.357 -1081.565 C 1945.521 -1085.525 1926.58 -1095.271 1907.797 -1080.13 L 1947.519 -976.547 C 1953.306 -977.658 1957.584 -979.402 1962.105 -977.5 C 1968.127 -974.965 1966.703 -963.155 1965.435 -960.144 C 1963.534 -955.625 1956.324 -942.706 1949.271 -938.583 C 1919.55 -922.727 1879.922 -912.814 1845.685 -898.859 C 1842.672 -900.127 1836.648 -902.662 1834.509 -901.79 C 1812.871 -896.714 1795.99 -886.092 1775.228 -878.876 C 1760.249 -872.772 1695.337 -857.544 1692.802 -851.52 C 1690.903 -847.001 1694.153 -842.089 1692.251 -837.57 C 1690.982 -834.559 1685.437 -829.802 1680.522 -826.552 C 1678.145 -829.325 1676.162 -837.251 1675.05 -843.037 C 1664.112 -842.321 1643.347 -835.106 1640.337 -836.374 C 1634.313 -838.909 1636.848 -844.933 1637.481 -846.438 C 1639.382 -850.957 1650.955 -853.178 1652.857 -857.695 C 1654.125 -860.708 1651.748 -863.481 1653.014 -866.494 C 1659.986 -883.058 1671.481 -864.039 1683.053 -866.26 C 1699.777 -868.086 1721.808 -878.313 1739.56 -886.796 C 1770.151 -900.512 1799.474 -911.216 1828.798 -921.92 C 1827.925 -924.061 1825.548 -926.834 1826.818 -929.846 C 1832.521 -943.4 1850.989 -940.946 1862.561 -943.167 C 1852.728 -970.351 1808.014 -1049.444 1801.992 -1051.98 C 1798.98 -1053.248 1791.927 -1049.125 1790.658 -1046.112 C 1788.758 -1041.594 1791.137 -1038.821 1789.236 -1034.303 C 1787.965 -1031.291 1781.785 -1025.029 1776.238 -1020.273 L 1771.718 -1022.174 C 1771.482 -1025.82 1770.37 -1031.606 1769.26 -1037.391 C 1761.096 -1039.054 1743.581 -1026.926 1736.05 -1030.094 C 1731.532 -1031.995 1729.788 -1036.276 1731.693 -1040.793 C 1732.959 -1043.806 1745.164 -1047.532 1747.066 -1052.051 C 1748.334 -1055.062 1746.588 -1059.342 1748.492 -1063.86 C 1749.759 -1066.873 1751.898 -1067.743 1752.531 -1069.25 C 1769.888 -1072.582 1764.343 -1067.826 1778.529 -1063.627 C 1780.035 -1062.993 1783.681 -1063.231 1787.962 -1064.975 C 1783.839 -1072.028 1778.844 -1081.222 1772.583 -1087.403 C 1770.204 -1090.176 1765.051 -1090.572 1764.182 -1092.712 C 1762.674 -1093.346 1761.565 -1099.132 1758.553 -1100.4 C 1754.034 -1102.301 1746.983 -1098.179 1741.196 -1097.069 C 1735.411 -1095.959 1727.248 -1097.621 1722.729 -1099.523 C 1709.174 -1105.227 1698.947 -1127.259 1704.652 -1140.814 C 1705.921 -1143.826 1710.833 -1147.076 1715.749 -1150.326 C 1715.749 -1150.326 1716.382 -1151.832 1713.37 -1153.099 C 1708.851 -1155 1706.077 -1152.623 1703.066 -1153.891 C 1696.407 -1154.92 1688.004 -1160.229 1682.219 -1159.119 C 1607.639 -1146.189 1533.297 -1129.612 1459.59 -1114.543 C 1445.879 -1111.45 1427.016 -1108.752 1410.53 -1103.28 C 1403.238 -1102.802 1398.562 -1095.908 1394.283 -1094.163 C 1379.939 -1089.564 1309.4 -1082.024 1291.327 -1089.63 C 1282.292 -1093.433 1279.437 -1103.499 1282.607 -1111.028 C 1286.41 -1120.064 1335.148 -1147.415 1338.795 -1147.653 C 1344.581 -1148.763 1357.656 -1150.351 1365.583 -1152.334 C 1430.649 -1176.359 1534.713 -1208.791 1605.484 -1246.368 C 1605.244 -1250.014 1601.994 -1254.929 1598.109 -1258.336 C 1597.238 -1260.476 1593.591 -1260.238 1590.58 -1261.505 C 1580.037 -1265.943 1560.856 -1279.334 1557.846 -1280.602 C 1553.326 -1282.503 1541.756 -1280.282 1535.971 -1279.172 C 1525.033 -1278.457 1514.967 -1275.602 1506.647 -1268.468 C 1503.874 -1266.089 1499.833 -1260.699 1495.551 -1258.955 C 1485.725 -1252.454 1479.859 -1263.786 1471.932 -1261.805 C 1425.647 -1252.922 1380.71 -1234.607 1336.168 -1221.443 C 1334.9 -1218.431 1334.504 -1213.28 1333.238 -1210.267 C 1330.068 -1202.738 1322.381 -1197.109 1319.37 -1198.376 C 1314.85 -1200.278 1314.769 -1212.721 1311.758 -1213.989 C 1307.24 -1215.89 1286.079 -1203.523 1281.564 -1205.424 C 1278.551 -1206.693 1274.428 -1213.745 1275.697 -1216.758 C 1276.966 -1219.769 1285.524 -1223.258 1288.93 -1227.142 C 1291.704 -1229.519 1291.465 -1233.165 1293.368 -1237.684 C 1302.242 -1258.768 1312.231 -1240.381 1326.18 -1239.83 C 1329.192 -1238.561 1333.471 -1240.306 1335.613 -1241.178 C 1345.044 -1242.527 1355.743 -1246.887 1365.809 -1249.742 C 1373.734 -1251.725 1380.547 -1259.493 1386.333 -1260.604 C 1410.506 -1271.704 1439.672 -1273.61 1464.717 -1282.569 C 1465.904 -1298.025 1485.4 -1302.228 1500.617 -1304.687 C 1500.379 -1308.333 1498 -1311.106 1499.901 -1315.624 C 1502.436 -1321.648 1583.83 -1342.346 1588.347 -1340.445 C 1591.362 -1339.177 1595.482 -1332.125 1598.494 -1330.856 C 1603.013 -1328.955 1623.223 -1322.221 1634.397 -1319.29 C 1634.397 -1319.29 1636.539 -1320.162 1637.17 -1321.668 L 1562.016 -1463.211 C 1554.723 -1462.734 1546.954 -1469.549 1539.663 -1469.073 C 1529.357 -1469.863 1517.391 -1462.492 1505.82 -1460.27 C 1488.463 -1456.938 1408.968 -1440.759 1406.433 -1434.734 C 1404.533 -1430.216 1406.515 -1422.29 1405.246 -1419.278 C 1403.345 -1414.76 1396.925 -1412.143 1392.645 -1410.399 C 1387.887 -1415.947 1387.172 -1426.883 1382.655 -1428.785 C 1378.137 -1430.686 1360.385 -1422.204 1352.854 -1425.372 C 1348.336 -1427.274 1346.592 -1431.554 1347.861 -1434.566 C 1349.129 -1437.578 1361.965 -1442.811 1365.613 -1443.049 C 1365.376 -1446.695 1365.135 -1450.34 1367.038 -1454.858 C 1368.938 -1459.378 1382.65 -1462.469 1384.157 -1461.836 C 1388.676 -1459.935 1391.291 -1453.515 1394.303 -1452.248 C 1412.374 -1444.643 1468.407 -1472.47 1482.116 -1475.562 C 1497.969 -1479.527 1517.463 -1483.73 1533.947 -1489.202 C 1536.722 -1491.58 1537.118 -1496.732 1537.752 -1498.239 C 1543.694 -1508.146 1562.56 -1510.843 1574.129 -1513.065 C 1596.4 -1519.646 1610.109 -1522.739 1635.394 -1528.053 C 1643.32 -1530.036 1645.936 -1523.616 1651.483 -1528.372 C 1654.256 -1530.75 1656.158 -1535.268 1655.921 -1538.914 L 1675.501 -1530.677 Z"/>
</svg>