<?xml version="1.0" encoding="utf-8"?>
<svg viewBox="-3243.126 63.996 6400.479 1152.7" xmlns="http://www.w3.org/2000/svg">
  <defs>
    <radialGradient gradientUnits="userSpaceOnUse" cx="2835.951" cy="-583.858" r="132.5" id="gradient-0" gradientTransform="matrix(1.94667, -1.682099, 0.653817, 0.756653, -2302.972208, 4628.269352)">
      <stop offset="0" style="stop-color: rgb(220, 74, 74);"/>
      <stop offset="1" style="stop-color: rgb(137, 165, 36);"/>
    </radialGradient>
    <radialGradient gradientUnits="userSpaceOnUse" cx="2600.805" cy="-369.06" r="132.5" id="gradient-1" gradientTransform="matrix(-1.871304, 1.658627, -0.663302, -0.748352, 7224.305132, -4973.933601)">
      <stop offset="0" style="stop-color: rgb(218, 85, 85);"/>
      <stop offset="1" style="stop-color: rgb(253, 246, 166);"/>
    </radialGradient>
  </defs>
  <polyline points="-2506.63 1010.672 -2187.292 888.021 -1888.527 878.83 -967.006 1028.263 -585.967 1076.66 -165.926 973.699 299.232 931.861 1277.219 1064.659 1908.151 969.117 2127.811 966.097 2544.963 1089.825 3157.353 1216.696 -3243.126 1216.156" style="opacity: 0;"/>
  <path d="M 1992.706 163.263 C 2012.706 172.263 2018.706 203.263 2018.706 217.263 C 2018.706 220.263 2017.706 231.263 2015.706 237.263 C 2013.706 241.263 2010.706 246.263 2010.706 249.263 C 2010.706 256.263 2030.706 273.263 2036.706 274.263 C 2049.706 277.263 2066.706 278.263 2080.706 286.263 C 2093.706 293.263 2095.706 309.263 2098.706 321.263 C 2106.706 354.263 2109.706 392.263 2114.706 428.263 C 2115.706 433.263 2127.706 530.263 2127.706 554.263 L 2132.706 620.263 L 2132.706 675.263 L 2143.706 813.263 C 2142.706 850.263 2142.706 836.263 2143.706 848.263 C 2143.706 856.263 2144.706 869.263 2144.706 872.263 C 2144.706 874.263 2146.706 888.263 2146.706 890.263 C 2146.706 903.263 2119.706 898.263 2118.706 898.263 C 2115.706 898.263 2110.706 900.263 2108.706 900.263 C 2097.706 900.263 2085.706 894.263 2077.706 891.263 L 2077.706 909.263 C 2076.706 919.263 2072.706 934.263 2072.706 937.263 C 2072.706 939.263 2078.706 975.263 2078.706 978.263 C 2078.706 980.263 2077.706 992.263 2075.706 998.263 C 2073.706 1000.263 2069.706 1001.263 2066.706 1002.263 C 2064.706 1006.263 2062.706 1011.263 2058.706 1013.263 C 2049.706 1018.263 2033.706 1022.263 2031.706 1022.263 C 2028.706 1022.263 2015.706 1019.263 2008.706 1016.263 C 2005.706 1015.263 2005.706 1011.263 2005.706 1009.263 C 2005.706 1006.263 2005.706 1001.263 2007.706 999.263 C 2011.706 991.263 2018.706 985.263 2022.706 978.263 C 2025.706 972.263 2027.706 965.263 2030.706 958.263 C 2031.706 953.263 2030.706 946.263 2030.706 943.263 C 2030.706 941.263 2033.706 929.263 2033.706 926.263 C 2033.706 924.263 2030.706 921.263 2030.706 918.263 C 2030.046 886.134 2028.105 883.243 2027.966 880.263 C 2027.897 878.704 2028.326 877.113 2029.706 871.263 L 2022.706 871.263 C 2011.706 875.263 2002.706 882.263 1991.706 880.263 C 1991.706 880.263 1990.706 879.263 1990.706 882.263 C 1990.706 884.263 1993.706 905.263 1993.706 908.263 C 1993.706 918.263 1985.706 925.263 1985.706 929.263 C 1985.706 931.263 1990.706 965.263 1990.706 968.263 C 1990.706 971.263 1964.706 976.263 1964.706 976.263 C 1962.706 976.263 1958.706 972.263 1956.706 972.263 C 1951.706 972.263 1925.706 987.263 1897.706 987.263 C 1895.706 987.263 1880.706 985.263 1871.706 984.263 C 1869.706 984.263 1867.706 982.263 1867.706 979.263 C 1867.706 975.263 1873.706 967.263 1877.706 966.263 C 1885.706 963.263 1896.706 962.263 1904.706 956.263 C 1916.706 947.263 1934.706 933.263 1936.706 924.263 L 1936.706 916.263 C 1936.706 907.263 1941.706 907.263 1941.706 905.263 C 1941.706 902.263 1938.706 901.263 1938.706 899.263 C 1937.706 895.263 1938.706 887.263 1938.706 885.263 C 1938.706 882.263 1935.706 880.263 1934.706 877.263 C 1929.706 873.263 1923.706 874.263 1917.706 874.263 C 1915.706 876.263 1915.706 878.263 1914.706 879.263 C 1911.706 880.263 1906.706 881.263 1903.706 881.263 C 1893.706 881.263 1885.706 865.263 1875.706 865.263 L 1848.706 865.263 C 1849.706 840.263 1851.706 817.263 1851.706 814.263 L 1863.706 705.263 L 1864.706 475.263 C 1865.706 465.263 1867.706 448.263 1867.706 445.263 C 1867.706 443.263 1871.706 420.263 1873.706 408.263 C 1877.706 386.263 1882.706 363.263 1887.706 341.263 C 1887.706 339.263 1888.706 336.263 1888.706 333.263 C 1890.706 320.263 1903.706 309.263 1915.706 301.263 C 1915.706 301.263 1954.706 283.263 1954.706 269.263 C 1954.706 267.263 1947.706 255.263 1944.706 248.263 C 1939.706 234.263 1935.706 206.263 1935.706 204.263 C 1935.706 199.263 1938.706 193.263 1940.706 187.263 C 1948.706 162.263 1960.706 159.263 1975.706 159.263 C 1983.706 159.263 1981.706 159.263 1992.706 163.263 Z" style="opacity: 0;"/>
  <path d="M2832.275-750.632c2,0,7-3,11-4c2-2,6-6,10-8c-2,6,6,13,12,13c2,0,7-2,13-4c1,1,1,0,1,2c0,3-4,10-4,12c0,3,7,10,9,10 c3,0,5-1,7-2v3c-6,6-10,7-10,13c0,3,3,6,4,8c-2,2-9,5-9,7c0,3,6,11,6,14c0,4-3,15-7,18c-3,2-7,1-9,3c-11,10-15,24-15,35 c0,3-1,5,0,7c2,4,7,7,10,11c5,6,9,13,14,20c5,5,9,13,15,20c4,5,11,7,14,12c5,6,9,14,11,22c3,10,2,22,6,33c5,16,18,36,22,52 c1,7,18,20,24,25c9,7,19,15,28,22h20c10,8,30,15,30,28c0,7-15,20-20,24c-3,2-7,4-11,4c-2-1-2-5-4-7c-6-7-17-10-25-17 c-5-3-9-8-14-12c-3-2-8-1-11-3c-20-7-58-23-60-23c-6,0-6,4-6,6s-1,17,3,26c10,24,25,47,35,70c2,3,67,156,67,183c0,12-19,10-24,11 c-1,1-3,2-3,5c-1,13-2,26-7,38c-3,6-11,12-12,19c-3,13-2,41-2,43c0,16,5,19,22,37c6,7,16,5,24,7c6,2,14,3,21,7c4,3,7,11,7,16 c0,3-2,8-5,11c-2,2-5,4-8,4c-12,2-27,4-37,4c-2,0-15,0-21-2c-7-2-17-7-20-7c-2,0-12,6-14,6c-8,0-30-9-31-15l1-85c-1,0-2-1-4-1 c-3,0-9,2-14,3c-12,3-25,5-38,7c-11-20-15-40-19-60c-1-5,0-12-3-15c-7-9-27-22-27-24v-19c1-3,2-8,2-10c0-6-3-6-7-6 c-16,0-34,45-35,48c-5,9-3,21-5,32c0,4-6,8-7,12c-2,3-1,9-2,13c-4,14-24,4-30,10c-13,12-23,28-31,43c-2,2-3,6-3,9c-3,20-6,44-14,65 c-4,9-15,14-22,15c-4,1-11,1-13,1c-8,0-28,1-28-14c0-19,24-54,33-69c0-5,2-11,2-16c1-5,2-10,2-15c0-12,5-29,15-40c-5-5-21-15-16-22 c0-4,1-8,0-12c-8,10-15,21-23,32c-11-4-22-9-33-12v-3c6-14,11-29,17-44c6-16,15-34,22-49c10-24,36-50,53-74c23-32,45-62,60-93 c5-10,8-21,14-30c6-10,15-21,18-29c0-4,0-9,1-13v-23c-3-4-8-7-11-10c-6-4-4-10-4-14c0-8,0-10-5-10c-2,0-5,4-8,5c-2,1-6-1-8,0 c-9,4-17,14-26,19c-10,5-23,19-30,28c-9,11-24,18-35,29c-4,3,1,9-5,13c-1,1-3,1-5,1c-3,0-4,0-5-1c-3-1-20-23-20-27c0-3,1-7,8-9 c1-1,5,0,8,0c7-6,13-16,23-22c5-3,14-4,20-9c9-7,25-24,25-27c0-2-4-9-8-11c-5-3-11-1-17-2c-13-23-19-15-19-33c0-45,47-40,65-69 c2-4,5-13,13-17c18-10,38-18,57-28c11-6,30-25,37-36v-8c0-16-11-19-11-29c0-7,4-11,7-18c1-2,0-4,0-7c0-2,3-8,3-12v-8c0-2,0-6,1-7 c3,1,7,4,10,6c6-6,2-13,5-20C2824.275-760.632,2829.275-750.632,2832.275-750.632z" style="opacity: 0;" transform="matrix(1, 0, 0, 1, -2688.497803, 883.32605)"/>
  <path d="M2825.775-588.132c60-50,120-102,181-153c18-15,73-64,78-64c3,0,6,2,6,5c0,8-124,112-167,149 c-28,25-58,49-87,75C2833.775-579.132,2829.775-584.132,2825.775-588.132z" style="fill-opacity: 0.83; paint-order: fill; stroke: url(#gradient-0); stroke-opacity: 0.31; fill: rgb(255, 187, 0); stroke-width: 44px;" transform="matrix(1, 0, 0, 1, -2688.497803, 883.32605)"/>
  <path d="M2609.275-377.632c-60,50-120,102-181,153c-18,15-73,64-78,64c-3,0-6-2-6-5c0-8,124-112,167-149 c28-25,58-49,87-75C2601.275-386.632,2605.275-381.632,2609.275-377.632z" style="fill-opacity: 0.83; paint-order: fill; stroke: url(#gradient-1); stroke-opacity: 0.31; fill: rgb(255, 187, 0); stroke-width: 44px;" transform="matrix(1, 0, 0, 1, -2688.497803, 883.32605)"/>
  <path d="M -2046.127 67.996 C -2019.127 74.996 -2025.127 104.996 -2020.127 123.996 C -2015.127 141.996 -2006.127 160.996 -1998.127 178.996 L -1998.127 181.996 C -2008.127 183.996 -2018.127 184.996 -2029.127 184.996 L -2029.127 190.996 C -2014.127 197.996 -2000.127 205.996 -1984.127 211.996 C -1978.127 214.996 -1970.127 214.996 -1963.127 217.996 C -1937.127 230.996 -1927.127 258.996 -1927.127 279.996 C -1927.127 295.996 -1917.127 310.996 -1912.127 327.996 C -1910.127 332.996 -1910.127 339.996 -1908.127 345.996 C -1898.127 370.996 -1893.127 399.996 -1889.127 424.996 C -1888.127 429.996 -1886.127 434.996 -1885.127 439.996 C -1885.127 446.996 -1884.127 459.996 -1884.127 461.996 C -1884.127 464.996 -1885.127 466.996 -1885.127 468.996 C -1885.127 473.996 -1884.127 479.996 -1885.127 484.996 C -1885.127 487.996 -1888.127 490.996 -1888.127 493.996 C -1888.127 505.996 -1862.127 541.996 -1855.127 547.996 C -1823.127 577.996 -1786.127 602.996 -1751.127 609.996 C -1740.127 611.996 -1716.127 613.996 -1713.127 613.996 C -1684.127 613.996 -1601.127 602.996 -1601.127 565.996 C -1601.127 555.996 -1612.127 544.996 -1620.127 533.996 C -1624.127 527.996 -1631.127 519.996 -1637.127 513.996 C -1645.127 505.996 -1646.127 490.996 -1647.127 482.996 C -1647.127 482.996 -1647.127 481.996 -1646.127 480.996 C -1642.127 491.996 -1637.127 509.996 -1624.127 519.996 C -1620.127 523.996 -1614.127 523.996 -1609.127 525.996 C -1600.127 528.996 -1595.127 540.996 -1592.127 549.996 C -1585.127 567.996 -1586.127 571.996 -1586.127 583.996 C -1586.127 586.996 -1579.127 617.996 -1579.127 619.996 L -1580.127 622.996 L -1592.127 622.996 C -1597.127 621.996 -1606.127 618.996 -1608.127 618.996 C -1611.127 618.996 -1614.127 619.996 -1616.127 623.996 C -1623.127 632.996 -1621.127 643.996 -1622.127 653.996 C -1622.127 658.996 -1624.127 663.996 -1625.127 668.996 C -1631.127 691.996 -1661.127 702.996 -1679.127 704.996 C -1692.127 705.996 -1704.127 709.996 -1717.127 710.996 C -1726.127 711.996 -1736.127 712.996 -1745.127 713.996 C -1751.127 714.996 -1758.127 713.996 -1763.127 714.996 C -1775.127 716.996 -1778.127 727.996 -1778.127 736.996 C -1778.127 738.996 -1776.127 745.996 -1776.127 747.996 C -1776.127 763.996 -1809.127 790.996 -1818.127 801.996 C -1820.127 803.996 -1829.127 807.996 -1832.127 807.996 C -1846.127 807.996 -1841.127 789.996 -1850.127 787.996 C -1853.127 786.996 -1859.127 788.996 -1861.127 788.996 C -1912.127 788.996 -1938.127 753.996 -1955.127 753.996 L -1988.127 753.996 C -1993.127 762.996 -1999.127 770.996 -2000.127 780.996 C -2002.127 795.996 -2001.127 799.996 -2001.127 800.996 L -1991.127 864.996 C -1994.127 872.996 -1993.127 898.996 -2011.127 898.996 C -2014.127 898.996 -2014.127 896.996 -2016.127 896.996 C -2036.127 896.996 -2037.127 869.996 -2037.127 858.996 L -2037.127 829.996 C -2038.127 828.996 -2040.127 825.996 -2042.127 822.996 C -2046.127 816.996 -2047.127 806.996 -2047.127 799.996 C -2047.127 797.996 -2046.127 774.996 -2046.127 771.996 C -2046.127 769.996 -2044.127 766.996 -2043.127 763.996 C -2044.127 762.996 -2044.127 761.996 -2047.127 761.996 C -2049.127 761.996 -2052.127 762.996 -2055.127 764.996 C -2059.127 778.996 -2058.127 794.996 -2059.127 808.996 C -2059.127 810.996 -2060.127 812.996 -2060.127 815.996 C -2060.127 817.996 -2059.127 823.996 -2058.127 827.996 C -2057.127 828.996 -2059.127 832.996 -2058.127 834.996 C -2058.127 836.996 -2055.127 837.996 -2055.127 839.996 C -2055.127 842.996 -2057.127 842.996 -2057.127 844.996 C -2057.127 847.996 -2054.127 852.996 -2054.127 856.996 C -2054.127 887.996 -2053.127 889.996 -2053.127 891.996 C -2053.127 893.996 -2056.127 895.996 -2058.127 899.996 C -2060.127 901.996 -2058.127 907.996 -2061.127 909.996 C -2068.127 914.996 -2078.127 912.996 -2085.127 912.996 C -2095.127 912.996 -2108.127 915.996 -2108.127 901.996 C -2108.127 899.996 -2099.127 874.996 -2095.127 860.996 C -2094.127 827.996 -2094.127 826.996 -2094.127 823.996 C -2094.127 818.996 -2107.127 784.996 -2108.127 780.996 C -2113.127 767.996 -2114.127 753.996 -2120.127 741.996 C -2122.127 736.996 -2128.127 733.996 -2133.127 730.996 C -2143.127 724.996 -2153.127 719.996 -2163.127 715.996 C -2177.127 709.996 -2192.127 700.996 -2207.127 693.996 C -2213.127 690.996 -2223.127 689.996 -2225.127 689.996 C -2247.127 689.996 -2261.127 710.996 -2286.127 727.996 C -2291.127 730.996 -2297.127 732.996 -2302.127 732.996 C -2306.127 733.996 -2312.127 732.996 -2315.127 733.996 C -2324.127 736.996 -2337.127 742.996 -2339.127 742.996 C -2360.127 742.996 -2385.127 692.996 -2411.127 692.996 C -2413.127 692.996 -2421.127 694.996 -2423.127 694.996 C -2433.127 694.996 -2456.127 685.996 -2458.127 681.996 C -2461.127 674.996 -2463.127 665.996 -2467.127 658.996 C -2468.127 655.996 -2472.127 650.996 -2472.127 648.996 C -2472.127 645.996 -2469.127 637.996 -2467.127 632.996 L -2467.127 623.996 C -2468.127 623.996 -2468.127 622.996 -2470.127 622.996 C -2473.127 622.996 -2502.127 640.996 -2505.127 640.996 C -2507.127 640.996 -2509.127 637.996 -2511.127 637.996 C -2516.127 635.996 -2522.127 637.996 -2526.127 635.996 C -2531.127 634.996 -2534.127 629.996 -2537.127 626.996 C -2543.127 620.996 -2550.127 614.996 -2554.127 608.996 C -2554.127 607.996 -2554.127 606.996 -2551.127 606.996 L -2531.127 606.996 C -2525.127 605.996 -2520.127 603.996 -2515.127 603.996 C -2464.127 598.996 -2422.127 541.996 -2393.127 517.996 C -2387.127 512.996 -2380.127 505.996 -2373.127 499.996 C -2358.127 481.996 -2343.127 462.996 -2330.127 445.996 C -2322.127 434.996 -2310.127 422.996 -2301.127 410.996 C -2294.127 399.996 -2290.127 386.996 -2283.127 376.996 C -2254.127 328.996 -2231.127 280.996 -2183.127 236.996 C -2180.127 233.996 -2178.127 227.996 -2174.127 225.996 C -2161.127 213.996 -2144.127 207.996 -2129.127 201.996 C -2119.127 197.996 -2109.127 191.996 -2099.127 188.996 L -2099.127 185.996 C -2105.127 185.996 -2114.127 186.996 -2117.127 186.996 C -2123.127 186.996 -2131.127 187.996 -2131.127 181.996 C -2131.127 179.996 -2120.127 145.996 -2114.127 127.996 C -2113.127 124.996 -2113.127 120.996 -2113.127 117.996 C -2113.127 112.996 -2112.127 106.996 -2111.127 100.996 C -2111.127 84.996 -2091.127 64.996 -2075.127 65.996 C -2072.127 65.996 -2069.127 63.996 -2066.127 63.996 C -2064.127 63.996 -2053.127 65.996 -2046.127 67.996 Z" style="opacity: 0;"/>
</svg>